<?xml version="1.0" encoding="UTF-8"?>
<svg xmlns="http://www.w3.org/2000/svg" xmlns:xlink="http://www.w3.org/1999/xlink" width="236px" height="216px" viewBox="0 0 235 216" version="1.1">
<g id="surface1">
<path style=" stroke:none;fill-rule:nonzero;fill:rgb(0%,0%,0%);fill-opacity:1;" d="M 0.0546875 0.292969 C -0.109375 0.738281 4.425781 9.742188 6.792969 13.628906 C 9.804688 18.601562 10.390625 19.375 16.101562 26.097656 C 21.570312 32.507812 24.070312 35.066406 29.191406 39.433594 C 34.242188 43.722656 38.609375 46.835938 44.890625 50.628906 C 46.613281 51.679688 48.027344 52.582031 48.066406 52.675781 C 48.101562 52.765625 47.84375 53.390625 47.496094 54.09375 C 45.292969 58.53125 43.914062 64.460938 42.796875 74.40625 C 42.207031 79.582031 41.398438 82.546875 39.289062 87.207031 C 38.589844 88.71875 37.894531 90.464844 37.710938 91.074219 C 37.324219 92.457031 37.453125 94.464844 38.023438 96.140625 C 38.773438 98.3125 41.765625 104.058594 43.035156 105.714844 C 44.578125 107.761719 48.136719 111.757812 49.71875 113.210938 C 50.765625 114.207031 50.910156 114.410156 50.746094 114.683594 C 46.851562 120.800781 45.382812 123.894531 44.246094 128.460938 C 43.363281 131.90625 43.089844 134.742188 43.070312 139.878906 C 43.070312 144.28125 43.089844 144.558594 43.546875 146.234375 C 44.722656 150.5625 47.148438 155.832031 49.9375 160.195312 C 51.386719 162.441406 51.609375 162.902344 51.515625 163.382812 C 51.332031 164.320312 50.488281 166.292969 48.890625 169.496094 C 46.007812 175.277344 45.164062 177.949219 45.015625 181.539062 C 44.90625 184.394531 45.238281 185.941406 46.46875 188.390625 C 48.082031 191.632812 50.691406 194.894531 53.757812 197.453125 L 54.527344 198.117188 L 53.589844 199.296875 C 50.578125 203.070312 48.46875 207.160156 48.46875 209.242188 C 48.46875 210.050781 48.78125 210.695312 49.183594 210.695312 C 49.238281 210.695312 49.40625 210.953125 49.515625 211.25 C 49.679688 211.691406 49.828125 211.800781 50.25 211.800781 C 50.523438 211.800781 51.003906 211.929688 51.296875 212.078125 C 51.570312 212.222656 51.9375 212.351562 52.066406 212.351562 C 52.507812 212.351562 56.382812 210.273438 58.199219 209.039062 C 60.382812 207.582031 63.855469 205.023438 65.175781 203.882812 C 67.304688 202.078125 67.03125 202.167969 70.941406 202.019531 C 72.867188 201.929688 76.632812 201.78125 79.3125 201.671875 C 82.636719 201.542969 85.132812 201.339844 87.207031 201.027344 C 88.878906 200.769531 90.621094 200.566406 91.097656 200.566406 C 92.679688 200.566406 96.460938 201.15625 101.34375 202.148438 C 112.011719 204.359375 113.386719 204.636719 115.132812 204.859375 L 116.929688 205.078125 L 115.957031 207.324219 C 115.40625 208.558594 114.78125 210.089844 114.5625 210.734375 C 114.066406 212.1875 114.011719 213.699219 114.46875 214.195312 C 114.964844 214.746094 116.929688 215.667969 117.609375 215.667969 C 117.941406 215.667969 118.269531 215.761719 118.328125 215.851562 C 118.65625 216.40625 120.710938 215.539062 123.761719 213.550781 C 127.339844 211.210938 129.121094 209.738281 132.664062 206.164062 C 135.527344 203.273438 136.390625 202.519531 137.347656 202.039062 C 139.695312 200.859375 141.625 199.441406 143.476562 197.546875 C 145.644531 195.355469 146.765625 193.695312 149.078125 189.367188 C 153.007812 181.945312 154.789062 176.457031 154.878906 171.410156 L 154.917969 169.054688 L 158.292969 167.875 C 160.128906 167.230469 163.105469 166.179688 164.867188 165.519531 C 166.628906 164.875 168.539062 164.191406 169.089844 164.007812 C 170.191406 163.65625 170.742188 163.269531 170.742188 162.867188 C 170.742188 162.71875 170.191406 161.375 169.511719 159.902344 C 167.953125 156.417969 166.777344 153.601562 166.539062 152.773438 C 166.316406 151.960938 165.804688 152.257812 173.183594 149.144531 C 176.34375 147.835938 179.445312 146.492188 180.105469 146.140625 C 181.792969 145.296875 181.90625 146.070312 178.25 134.117188 C 177.257812 130.855469 176.433594 128.054688 176.433594 127.925781 C 176.433594 127.78125 176.617188 127.632812 176.855469 127.578125 C 177.078125 127.523438 178.785156 126.933594 180.65625 126.25 C 182.527344 125.589844 185.703125 124.445312 187.726562 123.726562 C 189.742188 123.011719 191.910156 122.199219 192.515625 121.921875 L 193.65625 121.40625 L 193.488281 120.523438 C 193.398438 120.027344 192.992188 118.664062 192.609375 117.503906 C 192.203125 116.34375 190.917969 112.234375 189.761719 108.386719 C 188.585938 104.539062 187.429688 100.742188 187.191406 99.96875 L 186.75 98.550781 L 187.320312 98.367188 C 187.652344 98.277344 189.523438 97.761719 191.488281 97.246094 C 193.453125 96.710938 196.648438 95.808594 198.554688 95.199219 C 202.652344 93.949219 228.023438 85.4375 230.6875 84.445312 C 233.109375 83.523438 235 82.566406 235 82.234375 C 235 81.277344 233.144531 76.542969 230.722656 71.367188 C 229.527344 68.808594 220.734375 50.796875 216.804688 42.859375 L 215.464844 40.113281 L 214.859375 40.207031 C 214.050781 40.335938 212.621094 41.089844 205.238281 45.25 C 200.023438 48.179688 195.730469 50.886719 177.460938 62.710938 C 165.582031 70.410156 155.46875 77.003906 154.988281 77.351562 C 154.511719 77.722656 154.109375 78.183594 154.070312 78.382812 C 154.035156 78.605469 154.585938 79.546875 155.429688 80.761719 C 157.707031 84.039062 177.167969 113.453125 177.554688 114.242188 C 177.753906 114.628906 177.902344 114.980469 177.867188 115.015625 C 177.828125 115.035156 177.019531 115.332031 176.066406 115.660156 C 175.113281 115.992188 172.429688 117.007812 170.101562 117.910156 C 167.785156 118.8125 164.8125 119.972656 163.492188 120.46875 C 162.1875 120.984375 160.992188 121.5 160.847656 121.648438 C 160.515625 121.980469 160.699219 122.640625 161.964844 125.699219 C 164.628906 132.054688 167.988281 140.46875 167.988281 140.746094 C 167.988281 140.949219 166.445312 141.832031 162.699219 143.75 C 159.800781 145.238281 157.320312 146.546875 157.191406 146.660156 C 156.824219 146.953125 157.007812 147.433594 159.359375 152.3125 C 161.542969 156.84375 162.296875 158.574219 162.296875 159.015625 C 162.296875 159.253906 155.835938 162.496094 154.917969 162.71875 C 154.3125 162.867188 154.421875 163.195312 153.484375 157.746094 C 152.714844 153.195312 151.851562 149.199219 150.453125 143.75 C 149.683594 140.710938 147.480469 131.316406 146.195312 125.699219 C 144.046875 116.121094 141.035156 97.464844 139.804688 85.917969 C 138.007812 69.121094 137.878906 68.457031 134.464844 59.636719 C 133.621094 57.425781 132.921875 55.546875 132.921875 55.453125 C 132.921875 55.363281 133.308594 55.234375 133.804688 55.179688 C 135.953125 54.867188 143.421875 52.730469 149.171875 50.777344 C 152.476562 49.652344 160.019531 46.320312 163.125 44.625 C 168.300781 41.808594 175.277344 37.167969 179.828125 33.554688 C 182.199219 31.660156 190.183594 23.777344 191.875 21.640625 C 193.875 19.136719 193.839844 18.96875 191.269531 18.96875 C 190.222656 18.96875 188.347656 19.0625 187.082031 19.152344 C 185.816406 19.265625 182.894531 19.410156 180.5625 19.523438 C 174.265625 19.796875 171.695312 20.039062 168.539062 20.644531 C 162.242188 21.878906 152.824219 24.441406 148.070312 26.207031 C 139.402344 29.46875 127.6875 35.710938 121.117188 40.59375 C 120.34375 41.164062 119.539062 41.625 119.335938 41.625 C 119.132812 41.625 117.609375 41.050781 115.957031 40.351562 C 109.292969 37.515625 103.050781 35.878906 96.203125 35.140625 C 92.878906 34.789062 85.023438 34.847656 81.699219 35.234375 C 74.796875 36.0625 69.746094 37.3125 62.808594 39.949219 C 61.449219 40.464844 60.273438 40.886719 60.21875 40.886719 C 60.144531 40.886719 59.886719 40.609375 59.648438 40.261719 C 58.785156 39.046875 53.296875 33.023438 50.03125 29.726562 C 46.707031 26.390625 44.59375 24.53125 39.65625 20.609375 C 35.671875 17.421875 34.753906 16.777344 28.457031 12.761719 C 22.839844 9.171875 19.902344 7.441406 17.808594 6.5 C 8.921875 2.503906 4.808594 0.847656 2.386719 0.292969 C 0.84375 -0.0742188 0.203125 -0.0742188 0.0546875 0.292969 Z M 0.0546875 0.292969 "/>
</g>
</svg>
